<svg width="1160" height="1055" viewBox="0 0 1160 1055" fill="none" xmlns="http://www.w3.org/2000/svg">
<path d="M25.9174 0L25.9174 1055M85.606 0L85.6059 1055M145.295 0L145.294 1055M204.983 0L204.983 1055M264.672 0L264.672 1055M324.36 0L324.36 1055M384.049 0L384.049 1055M443.737 0L443.737 1055M503.426 0L503.426 1055M563.114 0L563.114 1055M622.803 0L622.803 1055M682.492 0L682.491 1055M742.18 0L742.18 1055M801.869 0L801.869 1055M861.557 0V1055M921.246 0V1055M980.934 0V1055M1040.62 0V1055M1100.31 0V1055M1160 0V1055M1159.21 0.938612H0M1159.21 68.5187H0M1159.21 136.099H0M1159.21 203.679H0M1159.21 271.259H0M1159.21 338.839H0M1159.21 406.419H0M1159.21 473.999H0M1159.21 541.579H0M1159.21 609.159H0M1159.21 676.739H0M1159.21 744.319H0M1159.21 811.899H0M1159.21 879.48H0M1159.21 947.06H0M1159.21 1014.64H0" stroke="url(#paint0_radial_32_58)" stroke-width="1.51626"/>
<defs>
<radialGradient id="paint0_radial_32_58" cx="0" cy="0" r="1" gradientUnits="userSpaceOnUse" gradientTransform="translate(593.286 551.904) rotate(92.4684) scale(648.87 714.017)">
<stop stop-color="#C1DFF8" stop-opacity="0.3"/>
<stop offset="0.619496" stop-color="#818181" stop-opacity="0.05"/>
</radialGradient>
</defs>
</svg>
